<svg width="145" height="29" viewBox="0 0 145 29" fill="none" xmlns="http://www.w3.org/2000/svg">
<path d="M35.3672 15.2188C35.3672 13.6458 35.3906 12.4375 35.4375 11.5938H35.4297L34.3125 11.4297C34.2448 11.237 34.1927 11.0234 34.1562 10.7891C34.1198 10.5547 34.1016 10.3281 34.1016 10.1094C34.1016 9.94271 34.1146 9.76042 34.1406 9.5625C34.7812 9.33333 35.6641 9.16406 36.7891 9.05469C37.9141 8.94531 38.9974 8.89062 40.0391 8.89062C40.8359 8.89062 41.5208 8.95312 42.0938 9.07812C42.6667 9.20312 43.1458 9.48698 43.5312 9.92969C43.9219 10.3672 44.1172 11.0234 44.1172 11.8984C44.1172 12.3359 44.0234 12.8464 43.8359 13.4297C43.6536 14.0078 43.4193 14.5729 43.1328 15.125C42.8516 15.6719 42.5677 16.1146 42.2812 16.4531C41.8594 16.9583 41.3906 17.2552 40.875 17.3438C40.0208 17.4792 39.1172 17.5469 38.1641 17.5469C38.1432 18.0833 38.1354 18.4688 38.1406 18.7031L39.3047 18.625C39.5443 19.0156 39.6771 19.4792 39.7031 20.0156C39.7031 20.0417 39.5859 20.1536 39.3516 20.3516C39.1172 20.5495 38.8073 20.7318 38.4219 20.8984C38.0417 21.0651 37.6042 21.1484 37.1094 21.1484C36.6198 21.1484 36.2292 21.0156 35.9375 20.75C35.651 20.4792 35.5078 20.013 35.5078 19.3516C35.4193 18.2682 35.375 16.8932 35.375 15.2266L35.3672 15.2188ZM40.3125 15.3516C40.4479 14.7786 40.5599 14.1719 40.6484 13.5312C40.7422 12.8854 40.7943 12.3229 40.8047 11.8438C40.7786 11.7969 40.6458 11.7552 40.4062 11.7188C40.1667 11.6823 39.8568 11.6641 39.4766 11.6641C39.2109 11.6641 38.8802 11.6745 38.4844 11.6953C38.4375 13.2682 38.375 14.5312 38.2969 15.4844L40.3125 15.3516Z" fill="white"/>
<path d="M44.4766 10.7812C44.3984 10.4635 44.3464 10.2005 44.3203 9.99219C44.2943 9.77865 44.2839 9.53385 44.2891 9.25781C44.3984 9.11719 44.5677 8.97656 44.7969 8.83594C45.0312 8.6901 45.3021 8.56771 45.6094 8.46875C45.9219 8.36979 46.2448 8.32031 46.5781 8.32031C47.2292 8.32031 47.7292 8.48438 48.0781 8.8125C48.4271 9.14062 48.6016 9.625 48.6016 10.2656C48.6016 10.724 48.5625 11.4609 48.4844 12.4766C48.4062 13.4922 48.2943 14.5729 48.1484 15.7188C48.0026 16.8594 47.8359 17.8568 47.6484 18.7109L47.6641 18.7266L48.8203 18.2422C49.2266 18.5911 49.4635 19.0547 49.5312 19.6328C49.5312 19.6693 49.4141 19.8203 49.1797 20.0859C48.9453 20.3464 48.6354 20.5911 48.25 20.8203C47.8698 21.0443 47.4323 21.1562 46.9375 21.1562C46.4219 21.1562 46.0026 21.013 45.6797 20.7266C45.362 20.4401 45.2109 19.9505 45.2266 19.2578L45.2422 17.8516C45.2474 16.5182 45.2604 15.3177 45.2812 14.25C45.3073 13.1823 45.3594 12.0807 45.4375 10.9453L44.4766 10.7812Z" fill="white"/>
<path d="M52.6797 15.8516C52.987 15.8516 53.3255 15.8828 53.6953 15.9453C54.0703 16.0078 54.4141 16.0833 54.7266 16.1719V15.9297C54.7266 15.7682 54.7214 15.5885 54.7109 15.3906C54.7057 15.1927 54.6953 15.0625 54.6797 15C54.6328 14.9115 54.4974 14.8203 54.2734 14.7266C54.0547 14.6328 53.6953 14.5859 53.1953 14.5859C52.888 14.5859 52.5703 14.625 52.2422 14.7031C51.9193 14.776 51.5599 14.875 51.1641 15C50.9505 14.6458 50.7786 14.3099 50.6484 13.9922C50.5234 13.6693 50.4609 13.3464 50.4609 13.0234C50.4609 12.9245 50.4688 12.8255 50.4844 12.7266C51.3281 12.0703 52.4193 11.7422 53.7578 11.7422C54.4974 11.7422 55.1536 11.8255 55.7266 11.9922C56.2995 12.1589 56.7708 12.4818 57.1406 12.9609C57.5104 13.4401 57.6953 14.1198 57.6953 15C57.6953 15.8594 57.5938 16.6927 57.3906 17.5C57.1927 18.3021 57.0911 18.7109 57.0859 18.7266L58.2188 18.2422C58.3698 18.4036 58.5026 18.6016 58.6172 18.8359C58.737 19.0651 58.8125 19.3307 58.8438 19.6328C58.7708 19.7891 58.612 19.9896 58.3672 20.2344C58.1224 20.474 57.8229 20.6875 57.4688 20.875C57.1146 21.0625 56.7448 21.1562 56.3594 21.1562C55.9271 21.1562 55.599 21.0286 55.375 20.7734C55.1562 20.5182 55.0469 20.1875 55.0469 19.7812C55.0469 19.5521 55.0807 19.3203 55.1484 19.0859L54.9141 19.0156C54.7682 19.8385 54.4583 20.401 53.9844 20.7031C53.5104 21.0052 52.987 21.1562 52.4141 21.1562C52.0391 21.1562 51.6771 21.0521 51.3281 20.8438C50.9792 20.6302 50.6953 20.3229 50.4766 19.9219C50.2578 19.5156 50.1484 19.0417 50.1484 18.5C50.1484 17.6354 50.3646 16.9792 50.7969 16.5312C51.2292 16.0781 51.8568 15.8516 52.6797 15.8516ZM53.5703 18.8281C53.7005 18.8021 53.8542 18.7292 54.0312 18.6094C54.2135 18.4896 54.375 18.3464 54.5156 18.1797C54.6562 18.013 54.7396 17.8542 54.7656 17.7031L54.7188 17.5156C54.4427 17.4792 54.1484 17.4609 53.8359 17.4609C53.5703 17.4609 53.388 17.4818 53.2891 17.5234C53.1224 17.7109 53.0391 17.9193 53.0391 18.1484C53.0391 18.3151 53.0807 18.4661 53.1641 18.6016C53.2526 18.737 53.388 18.8125 53.5703 18.8281Z" fill="white"/>
<path d="M59.9766 18.2812C59.9766 17.4323 59.987 16.7917 60.0078 16.3594C60.0286 15.9219 60.0833 15.2812 60.1719 14.4375L59.2656 14.3203C59.1562 13.9818 59.0833 13.6797 59.0469 13.4141C59.0156 13.1484 59 12.8047 59 12.3828C59.0833 12.3099 59.2214 12.224 59.4141 12.125C59.612 12.0208 59.8464 11.9323 60.1172 11.8594C60.388 11.7812 60.6615 11.7422 60.9375 11.7422C61.5677 11.7422 62.013 11.8776 62.2734 12.1484C62.5391 12.4193 62.6719 12.8255 62.6719 13.3672C62.6719 13.6693 62.6276 14.0781 62.5391 14.5938C62.3932 15.4219 62.3203 15.8568 62.3203 15.8984C62.3203 15.9245 62.3385 15.9505 62.375 15.9766C62.4115 15.9974 62.4505 16.0078 62.4922 16.0078C62.5391 16.0078 62.5703 15.9896 62.5859 15.9531C62.7943 15.125 63.0026 14.4323 63.2109 13.875C63.4193 13.3177 63.7344 12.8229 64.1562 12.3906C64.5781 11.9583 65.125 11.7422 65.7969 11.7422C66.6302 11.7422 67.2292 11.9974 67.5938 12.5078C67.9583 13.013 68.1406 13.651 68.1406 14.4219C68.1406 15.1094 68.0599 15.7734 67.8984 16.4141C67.737 17.0495 67.5365 17.7135 67.2969 18.4062C67.3073 18.3802 67.2708 18.4818 67.1875 18.7109L67.2031 18.7266L68.3438 18.2578C68.75 18.6068 68.987 19.0703 69.0547 19.6484C69.0547 19.6849 68.9375 19.8333 68.7031 20.0938C68.474 20.3542 68.1693 20.5964 67.7891 20.8203C67.4089 21.0443 66.9714 21.1562 66.4766 21.1562C65.9818 21.1562 65.5781 21.0234 65.2656 20.7578C64.9531 20.4922 64.7969 20.0391 64.7969 19.3984C64.7969 18.888 64.8177 18.2057 64.8594 17.3516C64.901 16.4974 64.9427 15.8099 64.9844 15.2891C64.849 15.1432 64.6823 15.0651 64.4844 15.0547C64.3021 15.2891 64.0339 15.7578 63.6797 16.4609C63.3255 17.1641 63.0755 17.6901 62.9297 18.0391C62.9193 18.112 62.9141 18.1823 62.9141 18.25C62.9141 18.5104 62.9531 18.862 63.0312 19.3047C63.1094 19.7422 63.2057 20.151 63.3203 20.5312C63.2266 20.7083 63.0339 20.8568 62.7422 20.9766C62.4505 21.0964 62.0911 21.1562 61.6641 21.1562C61.2786 21.1562 60.9688 21.125 60.7344 21.0625C60.5052 21 60.3438 20.9349 60.25 20.8672C60.1562 20.7943 60.1094 20.75 60.1094 20.7344C60.1042 20.6875 60.0911 20.5651 60.0703 20.3672C60.0495 20.1641 60.0286 19.8828 60.0078 19.5234C59.987 19.1589 59.9766 18.7448 59.9766 18.2812Z" fill="white"/>
<path d="M69.6484 16.4609C69.6484 15.5599 69.7995 14.7552 70.1016 14.0469C70.4036 13.3385 70.8698 12.7786 71.5 12.3672C72.1354 11.9505 72.9271 11.7422 73.875 11.7422C74.3698 11.7422 74.8646 11.8021 75.3594 11.9219C75.8542 12.0365 76.2734 12.2292 76.6172 12.5C76.9349 12.7552 77.1641 13.0938 77.3047 13.5156C77.4505 13.9323 77.5234 14.3958 77.5234 14.9062C77.5234 15.2448 77.4948 15.5911 77.4375 15.9453C77.375 16.0495 77.2526 16.1875 77.0703 16.3594C76.888 16.526 76.6745 16.6901 76.4297 16.8516C76.1849 17.013 75.9479 17.138 75.7188 17.2266C75.5 17.2422 75.2734 17.25 75.0391 17.25C74.6276 17.25 74.2109 17.2318 73.7891 17.1953C73.3672 17.1589 72.9974 17.1172 72.6797 17.0703C72.7214 17.513 72.8568 17.8984 73.0859 18.2266C73.3151 18.5547 73.6797 18.7188 74.1797 18.7188C74.2266 18.7188 74.3021 18.7135 74.4062 18.7031C74.724 18.6719 75.0938 18.5885 75.5156 18.4531C75.9427 18.3125 76.3672 18.151 76.7891 17.9688C76.987 18.1667 77.1328 18.3646 77.2266 18.5625C77.3203 18.7604 77.3854 19.0443 77.4219 19.4141C77.2604 19.6016 76.9974 19.8307 76.6328 20.1016C76.2734 20.3724 75.8333 20.6172 75.3125 20.8359C74.7917 21.0495 74.2474 21.1562 73.6797 21.1562C72.8255 21.1562 72.0938 20.9505 71.4844 20.5391C70.8802 20.1224 70.4219 19.5599 70.1094 18.8516C69.8021 18.138 69.6484 17.3411 69.6484 16.4609ZM74.6797 14.6641C74.6068 14.5859 74.4844 14.526 74.3125 14.4844C74.1406 14.4375 73.9609 14.4141 73.7734 14.4141C73.6224 14.4141 73.4688 14.4271 73.3125 14.4531C73.1615 14.4792 73.0703 14.5078 73.0391 14.5391C72.862 14.888 72.75 15.2839 72.7031 15.7266L74.7891 15.5234L74.6797 14.6641ZM71.5781 9.07031C71.6771 8.67969 71.8828 8.30469 72.1953 7.94531C72.513 7.58594 72.9609 7.26823 73.5391 6.99219L76.1172 9.94531C76.0599 10.1745 75.9323 10.3984 75.7344 10.6172C75.5417 10.8307 75.3438 10.9896 75.1406 11.0938C74.4896 10.8906 73.8542 10.6146 73.2344 10.2656C72.6146 9.91667 72.0625 9.51823 71.5781 9.07031Z" fill="white"/>
<path d="M79.1953 16.6875C79.1953 15.8385 79.2083 15.0651 79.2344 14.3672L78.3828 14.2188C78.3151 13.9583 78.2682 13.7292 78.2422 13.5312C78.2161 13.3333 78.2031 13.1224 78.2031 12.8984L78.2188 12.7422C78.2344 12.6693 78.2422 12.6094 78.2422 12.5625L79.375 12.3125C79.401 11.9896 79.4609 11.625 79.5547 11.2188C79.6484 10.8125 79.7474 10.513 79.8516 10.3203C80.0182 10.1953 80.2188 10.1016 80.4531 10.0391C80.6875 9.97656 80.9401 9.94531 81.2109 9.94531C81.4401 9.94531 81.6615 9.96875 81.875 10.0156C82.0938 10.0573 82.2839 10.1146 82.4453 10.1875C82.4609 10.3646 82.4688 10.5677 82.4688 10.7969C82.4688 11.1719 82.4505 11.5964 82.4141 12.0703L83.7891 11.8203C83.9818 12.1536 84.0781 12.5156 84.0781 12.9062C84.0781 13.1771 84.0443 13.4219 83.9766 13.6406C83.9141 13.8594 83.8255 14.1068 83.7109 14.3828C83.3672 14.4401 82.8958 14.4766 82.2969 14.4922C82.224 15.3411 82.0625 16.5885 81.8125 18.2344L81.7734 18.5L81.7891 18.5156L83.625 17.9453C84.0052 18.263 84.237 18.7526 84.3203 19.4141C84.3203 19.4505 84.151 19.6224 83.8125 19.9297C83.4792 20.2318 83.0599 20.513 82.5547 20.7734C82.0495 21.0286 81.5 21.1562 80.9062 21.1562C79.8698 21.1562 79.3177 20.5234 79.25 19.2578C79.2135 18.6172 79.1953 17.7604 79.1953 16.6875Z" fill="white"/>
<path d="M84.8516 16.4609C84.8516 15.5599 85.0026 14.7552 85.3047 14.0469C85.6068 13.3385 86.0729 12.7786 86.7031 12.3672C87.3385 11.9505 88.1302 11.7422 89.0781 11.7422C89.5729 11.7422 90.0677 11.8021 90.5625 11.9219C91.0573 12.0365 91.4766 12.2292 91.8203 12.5C92.138 12.7552 92.3672 13.0938 92.5078 13.5156C92.6536 13.9323 92.7266 14.3958 92.7266 14.9062C92.7266 15.2448 92.6979 15.5911 92.6406 15.9453C92.5781 16.0495 92.4557 16.1875 92.2734 16.3594C92.0911 16.526 91.8776 16.6901 91.6328 16.8516C91.388 17.013 91.151 17.138 90.9219 17.2266C90.7031 17.2422 90.4766 17.25 90.2422 17.25C89.8307 17.25 89.4141 17.2318 88.9922 17.1953C88.5703 17.1589 88.2005 17.1172 87.8828 17.0703C87.9245 17.513 88.0599 17.8984 88.2891 18.2266C88.5182 18.5547 88.8828 18.7188 89.3828 18.7188C89.4297 18.7188 89.5052 18.7135 89.6094 18.7031C89.9271 18.6719 90.2969 18.5885 90.7188 18.4531C91.1458 18.3125 91.5703 18.151 91.9922 17.9688C92.1901 18.1667 92.3359 18.3646 92.4297 18.5625C92.5234 18.7604 92.5885 19.0443 92.625 19.4141C92.4635 19.6016 92.2005 19.8307 91.8359 20.1016C91.4766 20.3724 91.0365 20.6172 90.5156 20.8359C89.9948 21.0495 89.4505 21.1562 88.8828 21.1562C88.0286 21.1562 87.2969 20.9505 86.6875 20.5391C86.0833 20.1224 85.625 19.5599 85.3125 18.8516C85.0052 18.138 84.8516 17.3411 84.8516 16.4609ZM89.8828 14.6641C89.8099 14.5859 89.6875 14.526 89.5156 14.4844C89.3438 14.4375 89.1641 14.4141 88.9766 14.4141C88.8255 14.4141 88.6719 14.4271 88.5156 14.4531C88.3646 14.4792 88.2734 14.5078 88.2422 14.5391C88.0651 14.888 87.9531 15.2839 87.9062 15.7266L89.9922 15.5234L89.8828 14.6641Z" fill="white"/>
<path d="M97.2422 18.4922C97.5599 18.5964 97.849 18.6797 98.1094 18.7422C98.6146 16.7109 99.1901 14.3125 99.8359 11.5469L97.9531 11.3438C97.8333 11.0156 97.7734 10.6432 97.7734 10.2266C97.7734 9.90885 97.8099 9.59896 97.8828 9.29688C98.638 9.15104 99.5078 9.04688 100.492 8.98438C101.482 8.91667 102.331 8.88281 103.039 8.88281C103.549 8.88281 103.932 8.88542 104.188 8.89062L104.68 9.17188C105.555 11.5729 106.443 14.8203 107.344 18.9141C107.354 18.9557 107.372 19.0391 107.398 19.1641C107.43 19.2891 107.453 19.4089 107.469 19.5234C107.484 19.6328 107.492 19.737 107.492 19.8359C107.492 20.2734 107.336 20.6276 107.023 20.8984C106.586 21.0703 106.057 21.1562 105.438 21.1562C105.146 21.1562 104.852 21.125 104.555 21.0625C104.258 21 104.057 20.9036 103.953 20.7734L104.047 18.7578L103.852 17.7109C103.513 17.7318 103.115 17.7422 102.656 17.7422C102.167 17.7422 101.708 17.7266 101.281 17.6953L101.188 18.1172C100.984 19.0234 100.818 19.6667 100.688 20.0469C100.562 20.4271 100.375 20.7083 100.125 20.8906C99.8802 21.0729 99.513 21.1641 99.0234 21.1641C98.7057 21.1641 98.3854 21.1224 98.0625 21.0391C97.7396 20.9609 97.4479 20.8542 97.1875 20.7188C96.9271 20.5833 96.7318 20.4375 96.6016 20.2812C96.6016 19.9062 96.6589 19.5495 96.7734 19.2109C96.888 18.8724 97.0443 18.6328 97.2422 18.4922ZM102.719 11.6172H102.359L101.797 15.4688H103.547L102.719 11.6172Z" fill="white"/>
<path d="M108.07 10.7812C107.992 10.4635 107.94 10.2005 107.914 9.99219C107.888 9.77865 107.878 9.53385 107.883 9.25781C107.992 9.11719 108.161 8.97656 108.391 8.83594C108.625 8.6901 108.896 8.56771 109.203 8.46875C109.516 8.36979 109.839 8.32031 110.172 8.32031C110.823 8.32031 111.323 8.48438 111.672 8.8125C112.021 9.14062 112.195 9.625 112.195 10.2656C112.195 10.724 112.156 11.4609 112.078 12.4766C112 13.4922 111.888 14.5729 111.742 15.7188C111.596 16.8594 111.43 17.8568 111.242 18.7109L111.258 18.7266L112.414 18.2422C112.82 18.5911 113.057 19.0547 113.125 19.6328C113.125 19.6693 113.008 19.8203 112.773 20.0859C112.539 20.3464 112.229 20.5911 111.844 20.8203C111.464 21.0443 111.026 21.1562 110.531 21.1562C110.016 21.1562 109.596 21.013 109.273 20.7266C108.956 20.4401 108.805 19.9505 108.82 19.2578L108.836 17.8516C108.841 16.5182 108.854 15.3177 108.875 14.25C108.901 13.1823 108.953 12.0807 109.031 10.9453L108.07 10.7812Z" fill="white"/>
<path d="M113.758 16.4609C113.758 15.5599 113.909 14.7552 114.211 14.0469C114.513 13.3385 114.979 12.7786 115.609 12.3672C116.245 11.9505 117.036 11.7422 117.984 11.7422C118.479 11.7422 118.974 11.8021 119.469 11.9219C119.964 12.0365 120.383 12.2292 120.727 12.5C121.044 12.7552 121.273 13.0938 121.414 13.5156C121.56 13.9323 121.633 14.3958 121.633 14.9062C121.633 15.2448 121.604 15.5911 121.547 15.9453C121.484 16.0495 121.362 16.1875 121.18 16.3594C120.997 16.526 120.784 16.6901 120.539 16.8516C120.294 17.013 120.057 17.138 119.828 17.2266C119.609 17.2422 119.383 17.25 119.148 17.25C118.737 17.25 118.32 17.2318 117.898 17.1953C117.477 17.1589 117.107 17.1172 116.789 17.0703C116.831 17.513 116.966 17.8984 117.195 18.2266C117.424 18.5547 117.789 18.7188 118.289 18.7188C118.336 18.7188 118.411 18.7135 118.516 18.7031C118.833 18.6719 119.203 18.5885 119.625 18.4531C120.052 18.3125 120.477 18.151 120.898 17.9688C121.096 18.1667 121.242 18.3646 121.336 18.5625C121.43 18.7604 121.495 19.0443 121.531 19.4141C121.37 19.6016 121.107 19.8307 120.742 20.1016C120.383 20.3724 119.943 20.6172 119.422 20.8359C118.901 21.0495 118.357 21.1562 117.789 21.1562C116.935 21.1562 116.203 20.9505 115.594 20.5391C114.99 20.1224 114.531 19.5599 114.219 18.8516C113.911 18.138 113.758 17.3411 113.758 16.4609ZM118.789 14.6641C118.716 14.5859 118.594 14.526 118.422 14.4844C118.25 14.4375 118.07 14.4141 117.883 14.4141C117.732 14.4141 117.578 14.4271 117.422 14.4531C117.271 14.4792 117.18 14.5078 117.148 14.5391C116.971 14.888 116.859 15.2839 116.812 15.7266L118.898 15.5234L118.789 14.6641Z" fill="white"/>
<path d="M123.461 18.9062C123.461 18.6823 123.466 18.1328 123.477 17.2578C123.492 15.5391 123.5 14.599 123.5 14.4375L122.781 14.3203C122.682 14.0234 122.612 13.7448 122.57 13.4844C122.529 13.224 122.508 12.9609 122.508 12.6953C122.508 12.5859 122.51 12.5026 122.516 12.4453C122.604 12.3672 122.742 12.2734 122.93 12.1641C123.117 12.0547 123.339 11.9583 123.594 11.875C123.849 11.7865 124.109 11.7422 124.375 11.7422C124.995 11.7422 125.443 11.8802 125.719 12.1562C126 12.4323 126.141 12.8359 126.141 13.3672C126.141 13.6901 126.099 14.1042 126.016 14.6094C125.938 15.1094 125.857 15.4661 125.773 15.6797L126.055 15.7266L126.523 13.9609C126.732 13.1641 126.992 12.5964 127.305 12.2578C127.617 11.9141 127.969 11.7422 128.359 11.7422C128.615 11.7422 128.867 11.7812 129.117 11.8594C129.372 11.9375 129.568 12.0339 129.703 12.1484C129.849 12.4714 129.922 12.901 129.922 13.4375C129.922 13.8125 129.885 14.1849 129.812 14.5547C129.74 14.9193 129.646 15.2135 129.531 15.4375L127.891 15.2188C127.557 15.5729 127.203 16.0651 126.828 16.6953C126.453 17.3203 126.154 17.8958 125.93 18.4219L125.922 18.8281L127.438 18.4688C127.693 18.8594 127.841 19.3229 127.883 19.8594C127.883 19.8906 127.766 20.0182 127.531 20.2422C127.297 20.4661 126.987 20.6745 126.602 20.8672C126.221 21.0547 125.784 21.1484 125.289 21.1484C124.779 21.1484 124.352 21.013 124.008 20.7422C123.669 20.4661 123.49 20.0026 123.469 19.3516C123.464 19.2734 123.461 19.125 123.461 18.9062Z" fill="white"/>
<path d="M131.133 16.6875C131.133 15.8385 131.146 15.0651 131.172 14.3672L130.32 14.2188C130.253 13.9583 130.206 13.7292 130.18 13.5312C130.154 13.3333 130.141 13.1224 130.141 12.8984L130.156 12.7422C130.172 12.6693 130.18 12.6094 130.18 12.5625L131.312 12.3125C131.339 11.9896 131.398 11.625 131.492 11.2188C131.586 10.8125 131.685 10.513 131.789 10.3203C131.956 10.1953 132.156 10.1016 132.391 10.0391C132.625 9.97656 132.878 9.94531 133.148 9.94531C133.378 9.94531 133.599 9.96875 133.812 10.0156C134.031 10.0573 134.221 10.1146 134.383 10.1875C134.398 10.3646 134.406 10.5677 134.406 10.7969C134.406 11.1719 134.388 11.5964 134.352 12.0703L135.727 11.8203C135.919 12.1536 136.016 12.5156 136.016 12.9062C136.016 13.1771 135.982 13.4219 135.914 13.6406C135.852 13.8594 135.763 14.1068 135.648 14.3828C135.305 14.4401 134.833 14.4766 134.234 14.4922C134.161 15.3411 134 16.5885 133.75 18.2344L133.711 18.5L133.727 18.5156L135.562 17.9453C135.943 18.263 136.174 18.7526 136.258 19.4141C136.258 19.4505 136.089 19.6224 135.75 19.9297C135.417 20.2318 134.997 20.513 134.492 20.7734C133.987 21.0286 133.438 21.1562 132.844 21.1562C131.807 21.1562 131.255 20.5234 131.188 19.2578C131.151 18.6172 131.133 17.7604 131.133 16.6875Z" fill="white"/>
<path d="M136.789 16.4609C136.789 15.5599 136.94 14.7552 137.242 14.0469C137.544 13.3385 138.01 12.7786 138.641 12.3672C139.276 11.9505 140.068 11.7422 141.016 11.7422C141.51 11.7422 142.005 11.8021 142.5 11.9219C142.995 12.0365 143.414 12.2292 143.758 12.5C144.076 12.7552 144.305 13.0938 144.445 13.5156C144.591 13.9323 144.664 14.3958 144.664 14.9062C144.664 15.2448 144.635 15.5911 144.578 15.9453C144.516 16.0495 144.393 16.1875 144.211 16.3594C144.029 16.526 143.815 16.6901 143.57 16.8516C143.326 17.013 143.089 17.138 142.859 17.2266C142.641 17.2422 142.414 17.25 142.18 17.25C141.768 17.25 141.352 17.2318 140.93 17.1953C140.508 17.1589 140.138 17.1172 139.82 17.0703C139.862 17.513 139.997 17.8984 140.227 18.2266C140.456 18.5547 140.82 18.7188 141.32 18.7188C141.367 18.7188 141.443 18.7135 141.547 18.7031C141.865 18.6719 142.234 18.5885 142.656 18.4531C143.083 18.3125 143.508 18.151 143.93 17.9688C144.128 18.1667 144.273 18.3646 144.367 18.5625C144.461 18.7604 144.526 19.0443 144.562 19.4141C144.401 19.6016 144.138 19.8307 143.773 20.1016C143.414 20.3724 142.974 20.6172 142.453 20.8359C141.932 21.0495 141.388 21.1562 140.82 21.1562C139.966 21.1562 139.234 20.9505 138.625 20.5391C138.021 20.1224 137.562 19.5599 137.25 18.8516C136.943 18.138 136.789 17.3411 136.789 16.4609ZM141.82 14.6641C141.747 14.5859 141.625 14.526 141.453 14.4844C141.281 14.4375 141.102 14.4141 140.914 14.4141C140.763 14.4141 140.609 14.4271 140.453 14.4531C140.302 14.4792 140.211 14.5078 140.18 14.5391C140.003 14.888 139.891 15.2839 139.844 15.7266L141.93 15.5234L141.82 14.6641Z" fill="white"/>
<path d="M21.1317 6.45008L21.1597 6.66538L20.8371 6.73217L20.7941 7.19081H21.1806L21.6947 7.14131L21.9601 6.82581L21.678 6.71607L21.5235 6.53834L21.2915 6.16261L21.1806 5.63122L20.7446 5.72008L20.6224 5.90735V6.11848L20.8323 6.26221L21.1317 6.45008Z" fill="#00A927"/>
<path d="M20.7601 6.62661L20.7834 6.33915L20.5275 6.22881L20.1697 6.31171L19.9043 6.73754V7.01368H20.2138L20.7601 6.62661Z" fill="#00A927"/>
<path d="M13.3946 7.84744L13.3158 8.05022H12.9347V8.24703H13.0254C13.0254 8.24703 13.0308 8.28878 13.0385 8.34365L13.2723 8.32397L13.4184 8.23332L13.4566 8.05022L13.6457 8.03412L13.7202 7.88025L13.5467 7.84446L13.3946 7.84744Z" fill="#00A927"/>
<path d="M12.4123 8.20469L12.3974 8.39733L12.6735 8.37407L12.7022 8.18083L12.5364 8.05022L12.4123 8.20469Z" fill="#00A927"/>
<path d="M28.9964 14.35C28.9922 13.926 28.9708 13.5049 28.9308 13.0904C28.7966 11.7085 28.4662 10.3839 27.9712 9.14223C27.9342 9.04979 27.9002 8.95615 27.8609 8.86491C27.2013 7.30651 26.275 5.88767 25.1413 4.66326C25.0667 4.58334 24.991 4.50462 24.9153 4.42708C24.7011 4.20463 24.4811 3.98754 24.2532 3.77939C21.6756 1.43256 18.2523 0 14.4997 0C10.7155 0 7.26774 1.4582 4.68294 3.84082C4.08058 4.39607 3.52712 5.00202 3.02495 5.6509C1.13078 8.10092 0 11.17 0 14.4997C0 22.4957 6.50495 29 14.5003 29C20.1244 29 25.0071 25.7794 27.4106 21.087C27.9247 20.0838 28.3249 19.0145 28.5944 17.8938C28.663 17.6093 28.7221 17.3237 28.7734 17.0344C28.9195 16.2108 28.9994 15.3639 28.9994 14.4997C29 14.4496 28.997 14.4001 28.9964 14.35ZM26.2673 8.55478L26.3514 8.46054C26.4617 8.67465 26.5649 8.89234 26.6633 9.11301L26.5261 9.10764L26.2673 9.14342V8.55478ZM24.1721 6.02484L24.1745 5.37715C24.4023 5.61869 24.6218 5.86739 24.8318 6.12504L24.5705 6.51389L23.6574 6.50554L23.6002 6.31529L24.1721 6.02484ZM6.68088 4.41516V4.3907H6.97133L6.99638 4.29111H7.47171V4.49865L7.33514 4.68115H6.68029L6.68088 4.41516ZM7.14488 5.06225C7.14488 5.06225 7.43533 5.01275 7.46038 5.01275C7.48543 5.01275 7.46038 5.3026 7.46038 5.3026L6.80553 5.34375L6.68088 5.19465L7.14488 5.06225ZM27.1911 10.8181H26.1301L25.4836 10.3368L24.8031 10.403V10.8181H24.5878L24.3552 10.6523L23.1767 10.3535V9.59013L21.6834 9.70643L21.2205 9.95513H20.6277L20.3373 9.9259L19.6174 10.3255V11.0776L18.1461 12.1391L18.2684 12.5924H18.5666L18.4884 13.0242L18.2785 13.1011L18.2672 14.2295L19.5387 15.6776H20.0922L20.1256 15.5893H21.1203L21.4072 15.3239H21.9714L22.2809 15.6341L23.1219 15.7211L23.0103 16.8394L23.9437 18.4872L23.4523 19.4266L23.4857 19.8691L23.8727 20.255V21.319L24.3809 22.0024V22.8863H24.8198C22.377 25.8856 18.659 27.8066 14.4991 27.8066C7.16218 27.8072 1.1928 21.8372 1.1928 14.4997C1.1928 12.6526 1.57211 10.8921 2.25499 9.29193V8.87683L2.73092 8.29892C2.89612 7.987 3.07325 7.68284 3.26231 7.38643L3.28378 7.62797L2.73092 8.29892C2.55975 8.62217 2.39992 8.95258 2.25499 9.29193L2.25559 10.0494L2.80845 10.3154V11.368L3.33865 12.2727L3.76985 12.3389L3.82532 12.0288L3.31659 11.2439L3.21699 10.4812H3.51519L3.64103 11.266L4.37639 12.3389L4.18674 12.6855L4.65431 13.4005L5.81551 13.688V13.5001L6.2801 13.5663L6.23597 13.8979L6.60097 13.9647L7.16457 14.1186L7.96076 15.0257L8.97762 15.1027L9.07722 15.9323L8.38122 16.4189L8.34842 17.1597L8.24882 17.6129L9.25555 18.8731L9.33248 19.3049C9.33248 19.3049 9.69748 19.4039 9.74221 19.4039C9.78634 19.4039 10.5605 19.9902 10.5605 19.9902V22.2678L10.8366 22.3454L10.6487 23.3962L11.1133 24.0159L11.0275 25.0572L11.6412 26.1361L12.429 26.8243L13.221 26.8386L13.2986 26.584L12.7165 26.0937L12.7499 25.8504L12.8542 25.5522L12.8763 25.248L12.4827 25.2361L12.2841 24.9868L12.6109 24.6725L12.655 24.4351L12.29 24.3308L12.3115 24.1101L12.8316 24.0314L13.6224 23.6515L13.8878 23.1648L14.7174 22.1032L14.5289 21.273L14.7836 20.8311L15.5464 20.8544L16.0599 20.4476L16.2257 18.8457L16.7952 18.1222L16.8948 17.6576L16.3754 17.4912L16.0325 16.9288L14.8605 16.9169L13.9313 16.5627L13.8872 15.9001L13.5771 15.3579L12.7367 15.3454L12.2513 14.5832L11.8201 14.3727L11.798 14.6053L11.0131 14.6518L10.7257 14.2516L9.90682 14.0852L9.23229 14.8647L8.17069 14.6846L8.09376 13.4882L7.31903 13.3558L7.62976 12.7689L7.54089 12.432L6.52284 13.1125L5.8823 13.0343L5.65388 12.534L5.79344 12.0181L6.14651 11.3674L6.9594 10.9559L8.52913 10.9553L8.52496 11.4342L9.08915 11.6966L9.04442 10.8784L9.45117 10.4692L10.2718 9.93008L10.3279 9.55077L11.1461 8.69911L12.0163 8.21721L11.9394 8.15399L12.5286 7.59934L12.7445 7.6566L12.8435 7.78065L13.0671 7.53255L13.122 7.50809L12.8769 7.4735L12.6282 7.3906V7.15204L12.76 7.04409H13.0504L13.1834 7.10254L13.2986 7.33514L13.4393 7.31367V7.29339L13.4799 7.30711L13.8878 7.24448L13.9456 7.04529L14.1782 7.10373V7.31963L13.9623 7.46813L13.9946 7.7049L14.7335 7.93273C14.7335 7.93273 14.7341 7.93571 14.7353 7.94168L14.9053 7.92736L14.9166 7.6071L14.3309 7.3405L14.2975 7.18663L14.7836 7.02083L14.8051 6.55564L14.2969 6.24611L14.2635 5.46184L13.5669 5.80417H13.3129L13.3797 5.20718L12.4314 4.98353L12.039 5.27994V6.18408L11.3334 6.40773L11.0507 6.99698L10.7442 7.04648V6.29263L10.081 6.20078L9.74937 5.98488L9.61577 5.49643L10.802 4.80222L11.3823 4.62569L11.4408 5.01573L11.764 4.99903L11.7891 4.80282L12.1272 4.75451L12.1332 4.68592L11.9877 4.62569L11.9543 4.41814L12.37 4.38295L12.621 4.12173L12.6348 4.10264L12.6377 4.10384L12.7141 4.02511L13.5878 3.91478L13.9743 4.2428L12.961 4.78254L14.2504 5.0867L14.4174 4.65551H14.981L15.1802 4.27977L14.7818 4.18017V3.70484L13.5323 3.15138L12.6699 3.25098L12.1833 3.50565L12.2167 4.12471L11.7079 4.04718L11.6298 3.70484L12.1171 3.26231L11.2326 3.21818L10.9786 3.29512L10.8682 3.59332L11.1998 3.64938L11.1336 3.98098L10.57 4.01438L10.4817 4.23504L9.66408 4.25771C9.66408 4.25771 9.64142 3.79371 9.60862 3.79371C9.57581 3.79371 10.2497 3.78238 10.2497 3.78238L10.737 3.30645L10.471 3.17345L10.1173 3.51698L9.53049 3.48358L9.17682 2.99692H8.42476L7.6399 3.58318H8.35916L8.42476 3.79371L8.23809 3.96726L9.03428 3.98933L9.15595 4.27679L8.25956 4.24339L8.21602 4.02213L7.65242 3.90046L7.35362 3.73466L6.68267 3.74003C8.87922 2.13989 11.5803 1.1928 14.4997 1.1928C17.8646 1.1928 20.939 2.45061 23.2847 4.51714L23.1266 4.79984L22.5129 5.04019L22.2541 5.32109L22.3137 5.64851L22.6304 5.69265L22.8213 6.16977L23.3676 5.9497L23.4576 6.58785H23.293L22.8445 6.52165L22.3471 6.60514L21.8659 7.28504L21.1776 7.39299L21.078 7.98223L21.3685 8.05082L21.2844 8.42953L20.6009 8.29236L19.9741 8.42953L19.8411 8.77843L19.9496 9.51081L20.3176 9.68317L20.9349 9.67959L21.3518 9.64202L21.4788 9.31042L22.1301 8.46412L22.5589 8.55179L22.9811 8.1701L23.0598 8.4683L24.0988 9.16907L23.9717 9.33964L23.5036 9.31459L23.6837 9.56985L23.9717 9.63307L24.3093 9.49232L24.3022 9.08557L24.4518 9.01043L24.3314 8.8828L23.6384 8.49633L23.4559 7.98283H24.032L24.2163 8.16533L24.7125 8.59295L24.7333 9.11003L25.2474 9.65752L25.4389 8.90725L25.7949 8.71282L25.8617 9.32652L26.2094 9.70822L26.9031 9.69629C27.0372 10.0416 27.1577 10.3929 27.2633 10.7513L27.1911 10.8181ZM7.90887 6.58785L8.25717 6.42205L8.57207 6.49719L8.46353 6.92004L8.12358 7.02799L7.90887 6.58785ZM9.75712 7.58324V7.85699H8.96152L8.66332 7.77409L8.73787 7.58324L9.12016 7.42519H9.64261V7.58324H9.75712ZM10.1233 7.96494V8.23033L9.92411 8.35856L9.67601 8.40448C9.67601 8.40448 9.67601 8.00668 9.67601 7.96494H10.1233ZM9.89906 7.85699V7.54149L10.1728 7.79079L9.89906 7.85699ZM10.0237 8.49514V8.75338L9.83346 8.94423H9.41061L9.47681 8.65438L9.67661 8.63708L9.71776 8.53748L10.0237 8.49514ZM8.97047 7.96494H9.41002L8.84642 8.75278L8.61382 8.62813L8.66392 8.29653L8.97047 7.96494ZM10.7704 8.40448V8.66213H10.3476L10.2319 8.49514V8.25538H10.2653L10.7704 8.40448ZM10.3798 8.05022L10.5002 7.92378L10.7036 8.05022L10.5408 8.18441L10.3798 8.05022ZM27.407 11.4897L27.4488 11.4408C27.4661 11.5159 27.4845 11.5911 27.5012 11.6674L27.407 11.4897Z" fill="#00A927"/>
<path d="M2.25499 8.87683V9.29193C2.39992 8.95258 2.55975 8.62217 2.73092 8.29892L2.25499 8.87683Z" fill="#00A927"/>
</svg>
