<svg width="29" height="29" viewBox="0 0 29 29" fill="none" xmlns="http://www.w3.org/2000/svg">
<g clip-path="url(#clip0_1_4)">
<path d="M21.1317 6.45008L21.1597 6.66538L20.8371 6.73218L20.7941 7.19081H21.1806L21.6947 7.14131L21.9601 6.82582L21.678 6.71608L21.5235 6.53835L21.2915 6.16262L21.1806 5.63123L20.7446 5.72009L20.6224 5.90736V6.11848L20.8323 6.26222L21.1317 6.45008Z" fill="#FFF"/>
<path d="M20.7601 6.62662L20.7834 6.33915L20.5275 6.22882L20.1697 6.31172L19.9043 6.73755V7.01368H20.2138L20.7601 6.62662Z" fill="#FFF"/>
<path d="M13.3946 7.84745L13.3158 8.05023H12.9347V8.24704H13.0254C13.0254 8.24704 13.0308 8.28879 13.0385 8.34365L13.2723 8.32397L13.4184 8.23332L13.4566 8.05023L13.6457 8.03412L13.7202 7.88025L13.5467 7.84447L13.3946 7.84745Z" fill="#FFF"/>
<path d="M12.4123 8.20468L12.3974 8.39732L12.6735 8.37406L12.7022 8.18083L12.5364 8.05022L12.4123 8.20468Z" fill="#FFF"/>
<path d="M28.9964 14.35C28.9922 13.926 28.9708 13.5049 28.9308 13.0904C28.7966 11.7085 28.4662 10.3839 27.9712 9.14223C27.9342 9.04979 27.9002 8.95615 27.8609 8.86491C27.2013 7.30651 26.275 5.88767 25.1413 4.66326C25.0667 4.58334 24.991 4.50462 24.9153 4.42708C24.7011 4.20463 24.4811 3.98754 24.2532 3.77939C21.6756 1.43256 18.2523 0 14.4997 0C10.7155 0 7.26774 1.4582 4.68294 3.84082C4.08058 4.39607 3.52712 5.00202 3.02495 5.6509C1.13078 8.10092 0 11.17 0 14.4997C0 22.4957 6.50495 29 14.5003 29C20.1244 29 25.0071 25.7794 27.4106 21.087C27.9247 20.0838 28.3249 19.0145 28.5944 17.8938C28.663 17.6093 28.7221 17.3237 28.7734 17.0344C28.9195 16.2108 28.9994 15.3639 28.9994 14.4997C29 14.4496 28.997 14.4001 28.9964 14.35ZM26.2673 8.55478L26.3514 8.46055C26.4617 8.67465 26.5649 8.89234 26.6633 9.11301L26.5261 9.10764L26.2673 9.14342V8.55478ZM24.1721 6.02484L24.1745 5.37715C24.4023 5.61869 24.6218 5.86739 24.8318 6.12504L24.5705 6.51389L23.6574 6.50554L23.6002 6.31529L24.1721 6.02484ZM6.68088 4.41516V4.3907H6.97133L6.99638 4.29111H7.47171V4.49865L7.33514 4.68115H6.68029L6.68088 4.41516ZM7.14488 5.06225C7.14488 5.06225 7.43533 5.01275 7.46038 5.01275C7.48543 5.01275 7.46038 5.3026 7.46038 5.3026L6.80553 5.34375L6.68088 5.19465L7.14488 5.06225ZM27.1911 10.8181H26.1301L25.4836 10.3368L24.8031 10.403V10.8181H24.5878L24.3552 10.6523L23.1767 10.3535V9.59013L21.6834 9.70643L21.2205 9.95513H20.6277L20.3373 9.9259L19.6174 10.3255V11.0776L18.1461 12.1391L18.2684 12.5924H18.5666L18.4884 13.0242L18.2785 13.1011L18.2672 14.2295L19.5387 15.6776H20.0922L20.1256 15.5893H21.1203L21.4072 15.3239H21.9714L22.2809 15.6341L23.1219 15.7211L23.0103 16.8394L23.9437 18.4872L23.4523 19.4266L23.4857 19.8691L23.8727 20.255V21.319L24.3809 22.0024V22.8863H24.8198C22.377 25.8856 18.659 27.8066 14.4991 27.8066C7.16218 27.8072 1.1928 21.8372 1.1928 14.4997C1.1928 12.6526 1.57211 10.8921 2.25499 9.29193V8.87683L2.73092 8.29892C2.89612 7.987 3.07325 7.68284 3.26231 7.38643L3.28378 7.62797L2.73092 8.29892C2.55975 8.62217 2.40051 8.95258 2.25559 9.29193V10.0494L2.80845 10.3154V11.368L3.33865 12.2727L3.76985 12.3389L3.82532 12.0288L3.31659 11.2439L3.21699 10.4812H3.51519L3.64103 11.266L4.37639 12.3389L4.18674 12.6855L4.65431 13.4005L5.81551 13.688V13.5001L6.2801 13.5663L6.23597 13.8979L6.60097 13.9647L7.16457 14.1186L7.96076 15.0257L8.97763 15.1027L9.07722 15.9323L8.38122 16.4189L8.34842 17.1597L8.24882 17.6129L9.25555 18.8731L9.33248 19.3049C9.33248 19.3049 9.69748 19.4039 9.74221 19.4039C9.78634 19.4039 10.5605 19.9902 10.5605 19.9902V22.2678L10.8366 22.3454L10.6487 23.3962L11.1133 24.0159L11.0275 25.0572L11.6412 26.1361L12.429 26.8243L13.221 26.8386L13.2986 26.584L12.7165 26.0937L12.7499 25.8504L12.8542 25.5522L12.8763 25.248L12.4827 25.2361L12.2841 24.9868L12.6109 24.6725L12.655 24.4351L12.29 24.3308L12.3115 24.1101L12.8316 24.0314L13.6224 23.6515L13.8878 23.1648L14.7174 22.1032L14.5289 21.273L14.7836 20.8311L15.5464 20.8544L16.0599 20.4476L16.2257 18.8457L16.7952 18.1222L16.8948 17.6576L16.3754 17.4912L16.0325 16.9288L14.8605 16.9169L13.9313 16.5627L13.8872 15.9001L13.5771 15.3579L12.7367 15.3454L12.2513 14.5832L11.8201 14.3727L11.798 14.6053L11.0131 14.6518L10.7257 14.2516L9.90682 14.0852L9.23229 14.8647L8.17069 14.6846L8.09376 13.4882L7.31903 13.3558L7.62976 12.7689L7.54089 12.432L6.52284 13.1125L5.8823 13.0343L5.65388 12.534L5.79344 12.0181L6.14651 11.3674L6.9594 10.9559L8.52913 10.9553L8.52496 11.4342L9.08915 11.6966L9.04442 10.8784L9.45117 10.4692L10.2718 9.93008L10.3279 9.55077L11.1461 8.69911L12.0163 8.21721L11.9394 8.15399L12.5286 7.59934L12.7445 7.6566L12.8435 7.78065L13.0671 7.53255L13.122 7.50809L12.8769 7.4735L12.6282 7.3906V7.15204L12.76 7.04409H13.0504L13.1834 7.10254L13.2986 7.33514L13.4393 7.31367V7.29339L13.4799 7.30711L13.8878 7.24448L13.9456 7.04529L14.1782 7.10373V7.31963L13.9623 7.46813H13.9629L13.9946 7.7049L14.7335 7.93273C14.7335 7.93273 14.7341 7.93571 14.7353 7.94168L14.9053 7.92736L14.9166 7.6071L14.3309 7.3405L14.2975 7.18663L14.7836 7.02083L14.8051 6.55564L14.2969 6.24611L14.2635 5.46184L13.5669 5.80418H13.3129L13.3797 5.20718L12.4314 4.98353L12.039 5.27994V6.18408L11.3334 6.40773L11.0507 6.99698L10.7442 7.04648V6.29263L10.081 6.20078L9.74937 5.98488L9.61577 5.49643L10.802 4.80222L11.3823 4.62569L11.4408 5.01573L11.764 4.99903L11.7891 4.80282L12.1272 4.75451L12.1332 4.68592L11.9877 4.62569L11.9543 4.41814L12.37 4.38295L12.621 4.12173L12.6348 4.10264L12.6377 4.10384L12.7141 4.02511L13.5878 3.91478L13.9743 4.2428L12.961 4.78254L14.2504 5.0867L14.4174 4.65551H14.981L15.1802 4.27977L14.7818 4.18017V3.70484L13.5323 3.15138L12.6699 3.25098L12.1833 3.50565L12.2167 4.12471L11.7079 4.04718L11.6298 3.70484L12.1171 3.26231L11.2326 3.21818L10.9786 3.29512L10.8682 3.59332L11.1998 3.64938L11.1336 3.98098L10.57 4.01438L10.4817 4.23504L9.66408 4.25771C9.66408 4.25771 9.64142 3.79371 9.60862 3.79371C9.57582 3.79371 10.2497 3.78238 10.2497 3.78238L10.737 3.30645L10.471 3.17345L10.1173 3.51698L9.53049 3.48358L9.17682 2.99692H8.42476L7.6399 3.58318H8.35916L8.42476 3.79371L8.23809 3.96726L9.03428 3.98933L9.15595 4.27679L8.25956 4.24339L8.21602 4.02213L7.65242 3.90046L7.35362 3.73466L6.68267 3.74003C8.87922 2.13989 11.5803 1.1928 14.4997 1.1928C17.8646 1.1928 20.939 2.45061 23.2847 4.51714L23.1266 4.79984L22.5129 5.04019L22.2541 5.32109L22.3137 5.64851L22.6304 5.69265L22.8213 6.16977L23.3676 5.9497L23.4576 6.58785H23.293L22.8445 6.52165L22.3471 6.60514L21.8659 7.28504L21.1776 7.39299L21.078 7.98223L21.3685 8.05082L21.2844 8.42953L20.6009 8.29236L19.9741 8.42953L19.8411 8.77843L19.9496 9.51081L20.3176 9.68317L20.9349 9.67959L21.3518 9.64202L21.4788 9.31042L22.1301 8.46412L22.5589 8.55179L22.9811 8.1701L23.0598 8.4683L24.0988 9.16907L23.9717 9.33964L23.5036 9.31459L23.6837 9.56985L23.9717 9.63307L24.3093 9.49232L24.3022 9.08557L24.4518 9.01043L24.3314 8.8828L23.6384 8.49633L23.4559 7.98283H24.032L24.2163 8.16533L24.7125 8.59295L24.7333 9.11003L25.2474 9.65752L25.4389 8.90725L25.7949 8.71282L25.8617 9.32652L26.2094 9.70822L26.9031 9.69629C27.0372 10.0416 27.1577 10.3929 27.2633 10.7513L27.1911 10.8181ZM7.90887 6.58785L8.25717 6.42205L8.57207 6.49719L8.46353 6.92004L8.12358 7.02799L7.90887 6.58785ZM9.75712 7.58324V7.85699H8.96152L8.66332 7.77409L8.73787 7.58324L9.12016 7.42519H9.64261V7.58324H9.75712ZM10.1233 7.96494V8.23033L9.92411 8.35856L9.67601 8.40448C9.67601 8.40448 9.67601 8.00668 9.67601 7.96494H10.1233ZM9.89906 7.85699V7.54149L10.1728 7.79079L9.89906 7.85699ZM10.0237 8.49514V8.75338L9.83346 8.94423H9.41061L9.47681 8.65438L9.67661 8.63708L9.71776 8.53748L10.0237 8.49514ZM8.97047 7.96494H9.41002L8.84642 8.75278L8.61382 8.62813L8.66392 8.29653L8.97047 7.96494ZM10.7704 8.40448V8.66213H10.3476L10.2319 8.49514V8.25538H10.2653L10.7704 8.40448ZM10.3798 8.05022L10.5002 7.92378L10.7036 8.05022L10.5408 8.18441L10.3798 8.05022ZM27.407 11.4897L27.4488 11.4408C27.4661 11.5159 27.4845 11.5911 27.5012 11.6674L27.407 11.4897Z" fill="#FFF"/>
<path d="M2.25559 8.87683V9.29193C2.40051 8.95317 2.56035 8.62277 2.73152 8.29892L2.25559 8.87683Z" fill="#FFF"/>
</g>
<defs>
<clipPath id="clip0_1_4">
<rect width="29" height="29" fill="white"/>
</clipPath>
</defs>
</svg>
