<svg width="111" height="15" viewBox="0 0 111 15" fill="none" xmlns="http://www.w3.org/2000/svg">
<path d="M1.36719 8.21875C1.36719 6.64583 1.39062 5.4375 1.4375 4.59375H1.42969L0.3125 4.42969C0.244792 4.23698 0.192708 4.02344 0.15625 3.78906C0.119792 3.55469 0.101562 3.32812 0.101562 3.10938C0.101562 2.94271 0.114583 2.76042 0.140625 2.5625C0.78125 2.33333 1.66406 2.16406 2.78906 2.05469C3.91406 1.94531 4.9974 1.89062 6.03906 1.89062C6.83594 1.89062 7.52083 1.95312 8.09375 2.07812C8.66667 2.20312 9.14583 2.48698 9.53125 2.92969C9.92188 3.36719 10.1172 4.02344 10.1172 4.89844C10.1172 5.33594 10.0234 5.84635 9.83594 6.42969C9.65365 7.00781 9.41927 7.57292 9.13281 8.125C8.85156 8.67188 8.56771 9.11458 8.28125 9.45312C7.85938 9.95833 7.39062 10.2552 6.875 10.3438C6.02083 10.4792 5.11719 10.5469 4.16406 10.5469C4.14323 11.0833 4.13542 11.4688 4.14062 11.7031L5.30469 11.625C5.54427 12.0156 5.67708 12.4792 5.70312 13.0156C5.70312 13.0417 5.58594 13.1536 5.35156 13.3516C5.11719 13.5495 4.80729 13.7318 4.42188 13.8984C4.04167 14.0651 3.60417 14.1484 3.10938 14.1484C2.61979 14.1484 2.22917 14.0156 1.9375 13.75C1.65104 13.4792 1.50781 13.013 1.50781 12.3516C1.41927 11.2682 1.375 9.89323 1.375 8.22656L1.36719 8.21875ZM6.3125 8.35156C6.44792 7.77865 6.5599 7.17188 6.64844 6.53125C6.74219 5.88542 6.79427 5.32292 6.80469 4.84375C6.77865 4.79688 6.64583 4.75521 6.40625 4.71875C6.16667 4.68229 5.85677 4.66406 5.47656 4.66406C5.21094 4.66406 4.88021 4.67448 4.48438 4.69531C4.4375 6.26823 4.375 7.53125 4.29688 8.48438L6.3125 8.35156ZM10.4766 3.78125C10.3984 3.46354 10.3464 3.20052 10.3203 2.99219C10.2943 2.77865 10.2839 2.53385 10.2891 2.25781C10.3984 2.11719 10.5677 1.97656 10.7969 1.83594C11.0312 1.6901 11.3021 1.56771 11.6094 1.46875C11.9219 1.36979 12.2448 1.32031 12.5781 1.32031C13.2292 1.32031 13.7292 1.48438 14.0781 1.8125C14.4271 2.14062 14.6016 2.625 14.6016 3.26562C14.6016 3.72396 14.5625 4.46094 14.4844 5.47656C14.4062 6.49219 14.2943 7.57292 14.1484 8.71875C14.0026 9.85938 13.8359 10.8568 13.6484 11.7109L13.6641 11.7266L14.8203 11.2422C15.2266 11.5911 15.4635 12.0547 15.5312 12.6328C15.5312 12.6693 15.4141 12.8203 15.1797 13.0859C14.9453 13.3464 14.6354 13.5911 14.25 13.8203C13.8698 14.0443 13.4323 14.1562 12.9375 14.1562C12.4219 14.1562 12.0026 14.013 11.6797 13.7266C11.362 13.4401 11.2109 12.9505 11.2266 12.2578L11.2422 10.8516C11.2474 9.51823 11.2604 8.31771 11.2812 7.25C11.3073 6.18229 11.3594 5.08073 11.4375 3.94531L10.4766 3.78125ZM18.6797 8.85156C18.987 8.85156 19.3255 8.88281 19.6953 8.94531C20.0703 9.00781 20.4141 9.08333 20.7266 9.17188V8.92969C20.7266 8.76823 20.7214 8.58854 20.7109 8.39062C20.7057 8.19271 20.6953 8.0625 20.6797 8C20.6328 7.91146 20.4974 7.82031 20.2734 7.72656C20.0547 7.63281 19.6953 7.58594 19.1953 7.58594C18.888 7.58594 18.5703 7.625 18.2422 7.70312C17.9193 7.77604 17.5599 7.875 17.1641 8C16.9505 7.64583 16.7786 7.3099 16.6484 6.99219C16.5234 6.66927 16.4609 6.34635 16.4609 6.02344C16.4609 5.92448 16.4688 5.82552 16.4844 5.72656C17.3281 5.07031 18.4193 4.74219 19.7578 4.74219C20.4974 4.74219 21.1536 4.82552 21.7266 4.99219C22.2995 5.15885 22.7708 5.48177 23.1406 5.96094C23.5104 6.4401 23.6953 7.11979 23.6953 8C23.6953 8.85938 23.5938 9.69271 23.3906 10.5C23.1927 11.3021 23.0911 11.7109 23.0859 11.7266L24.2188 11.2422C24.3698 11.4036 24.5026 11.6016 24.6172 11.8359C24.737 12.0651 24.8125 12.3307 24.8438 12.6328C24.7708 12.7891 24.612 12.9896 24.3672 13.2344C24.1224 13.474 23.8229 13.6875 23.4688 13.875C23.1146 14.0625 22.7448 14.1562 22.3594 14.1562C21.9271 14.1562 21.599 14.0286 21.375 13.7734C21.1562 13.5182 21.0469 13.1875 21.0469 12.7812C21.0469 12.5521 21.0807 12.3203 21.1484 12.0859L20.9141 12.0156C20.7682 12.8385 20.4583 13.401 19.9844 13.7031C19.5104 14.0052 18.987 14.1562 18.4141 14.1562C18.0391 14.1562 17.6771 14.0521 17.3281 13.8438C16.9792 13.6302 16.6953 13.3229 16.4766 12.9219C16.2578 12.5156 16.1484 12.0417 16.1484 11.5C16.1484 10.6354 16.3646 9.97917 16.7969 9.53125C17.2292 9.07812 17.8568 8.85156 18.6797 8.85156ZM19.5703 11.8281C19.7005 11.8021 19.8542 11.7292 20.0312 11.6094C20.2135 11.4896 20.375 11.3464 20.5156 11.1797C20.6562 11.013 20.7396 10.8542 20.7656 10.7031L20.7188 10.5156C20.4427 10.4792 20.1484 10.4609 19.8359 10.4609C19.5703 10.4609 19.388 10.4818 19.2891 10.5234C19.1224 10.7109 19.0391 10.9193 19.0391 11.1484C19.0391 11.3151 19.0807 11.4661 19.1641 11.6016C19.2526 11.737 19.388 11.8125 19.5703 11.8281ZM25.9766 11.2812C25.9766 10.4323 25.987 9.79167 26.0078 9.35938C26.0286 8.92188 26.0833 8.28125 26.1719 7.4375L25.2656 7.32031C25.1562 6.98177 25.0833 6.67969 25.0469 6.41406C25.0156 6.14844 25 5.80469 25 5.38281C25.0833 5.3099 25.2214 5.22396 25.4141 5.125C25.612 5.02083 25.8464 4.93229 26.1172 4.85938C26.388 4.78125 26.6615 4.74219 26.9375 4.74219C27.5677 4.74219 28.013 4.8776 28.2734 5.14844C28.5391 5.41927 28.6719 5.82552 28.6719 6.36719C28.6719 6.66927 28.6276 7.07812 28.5391 7.59375C28.3932 8.42188 28.3203 8.85677 28.3203 8.89844C28.3203 8.92448 28.3385 8.95052 28.375 8.97656C28.4115 8.9974 28.4505 9.00781 28.4922 9.00781C28.5391 9.00781 28.5703 8.98958 28.5859 8.95312C28.7943 8.125 29.0026 7.43229 29.2109 6.875C29.4193 6.31771 29.7344 5.82292 30.1562 5.39062C30.5781 4.95833 31.125 4.74219 31.7969 4.74219C32.6302 4.74219 33.2292 4.9974 33.5938 5.50781C33.9583 6.01302 34.1406 6.65104 34.1406 7.42188C34.1406 8.10938 34.0599 8.77344 33.8984 9.41406C33.737 10.0495 33.5365 10.7135 33.2969 11.4062C33.3073 11.3802 33.2708 11.4818 33.1875 11.7109L33.2031 11.7266L34.3438 11.2578C34.75 11.6068 34.987 12.0703 35.0547 12.6484C35.0547 12.6849 34.9375 12.8333 34.7031 13.0938C34.474 13.3542 34.1693 13.5964 33.7891 13.8203C33.4089 14.0443 32.9714 14.1562 32.4766 14.1562C31.9818 14.1562 31.5781 14.0234 31.2656 13.7578C30.9531 13.4922 30.7969 13.0391 30.7969 12.3984C30.7969 11.888 30.8177 11.2057 30.8594 10.3516C30.901 9.4974 30.9427 8.8099 30.9844 8.28906C30.849 8.14323 30.6823 8.0651 30.4844 8.05469C30.3021 8.28906 30.0339 8.75781 29.6797 9.46094C29.3255 10.1641 29.0755 10.6901 28.9297 11.0391C28.9193 11.112 28.9141 11.1823 28.9141 11.25C28.9141 11.5104 28.9531 11.862 29.0312 12.3047C29.1094 12.7422 29.2057 13.151 29.3203 13.5312C29.2266 13.7083 29.0339 13.8568 28.7422 13.9766C28.4505 14.0964 28.0911 14.1562 27.6641 14.1562C27.2786 14.1562 26.9688 14.125 26.7344 14.0625C26.5052 14 26.3438 13.9349 26.25 13.8672C26.1562 13.7943 26.1094 13.75 26.1094 13.7344C26.1042 13.6875 26.0911 13.5651 26.0703 13.3672C26.0495 13.1641 26.0286 12.8828 26.0078 12.5234C25.987 12.1589 25.9766 11.7448 25.9766 11.2812ZM35.6484 9.46094C35.6484 8.5599 35.7995 7.75521 36.1016 7.04688C36.4036 6.33854 36.8698 5.77865 37.5 5.36719C38.1354 4.95052 38.9271 4.74219 39.875 4.74219C40.3698 4.74219 40.8646 4.80208 41.3594 4.92188C41.8542 5.03646 42.2734 5.22917 42.6172 5.5C42.9349 5.75521 43.1641 6.09375 43.3047 6.51562C43.4505 6.93229 43.5234 7.39583 43.5234 7.90625C43.5234 8.24479 43.4948 8.59115 43.4375 8.94531C43.375 9.04948 43.2526 9.1875 43.0703 9.35938C42.888 9.52604 42.6745 9.6901 42.4297 9.85156C42.1849 10.013 41.9479 10.138 41.7188 10.2266C41.5 10.2422 41.2734 10.25 41.0391 10.25C40.6276 10.25 40.2109 10.2318 39.7891 10.1953C39.3672 10.1589 38.9974 10.1172 38.6797 10.0703C38.7214 10.513 38.8568 10.8984 39.0859 11.2266C39.3151 11.5547 39.6797 11.7188 40.1797 11.7188C40.2266 11.7188 40.3021 11.7135 40.4062 11.7031C40.724 11.6719 41.0938 11.5885 41.5156 11.4531C41.9427 11.3125 42.3672 11.151 42.7891 10.9688C42.987 11.1667 43.1328 11.3646 43.2266 11.5625C43.3203 11.7604 43.3854 12.0443 43.4219 12.4141C43.2604 12.6016 42.9974 12.8307 42.6328 13.1016C42.2734 13.3724 41.8333 13.6172 41.3125 13.8359C40.7917 14.0495 40.2474 14.1562 39.6797 14.1562C38.8255 14.1562 38.0938 13.9505 37.4844 13.5391C36.8802 13.1224 36.4219 12.5599 36.1094 11.8516C35.8021 11.138 35.6484 10.3411 35.6484 9.46094ZM40.6797 7.66406C40.6068 7.58594 40.4844 7.52604 40.3125 7.48438C40.1406 7.4375 39.9609 7.41406 39.7734 7.41406C39.6224 7.41406 39.4688 7.42708 39.3125 7.45312C39.1615 7.47917 39.0703 7.50781 39.0391 7.53906C38.862 7.88802 38.75 8.28385 38.7031 8.72656L40.7891 8.52344L40.6797 7.66406ZM37.5781 2.07031C37.6771 1.67969 37.8828 1.30469 38.1953 0.945312C38.513 0.585938 38.9609 0.268229 39.5391 -0.0078125L42.1172 2.94531C42.0599 3.17448 41.9323 3.39844 41.7344 3.61719C41.5417 3.83073 41.3438 3.98958 41.1406 4.09375C40.4896 3.89062 39.8542 3.61458 39.2344 3.26562C38.6146 2.91667 38.0625 2.51823 37.5781 2.07031ZM45.1953 9.6875C45.1953 8.83854 45.2083 8.0651 45.2344 7.36719L44.3828 7.21875C44.3151 6.95833 44.2682 6.72917 44.2422 6.53125C44.2161 6.33333 44.2031 6.1224 44.2031 5.89844L44.2188 5.74219C44.2344 5.66927 44.2422 5.60938 44.2422 5.5625L45.375 5.3125C45.401 4.98958 45.4609 4.625 45.5547 4.21875C45.6484 3.8125 45.7474 3.51302 45.8516 3.32031C46.0182 3.19531 46.2188 3.10156 46.4531 3.03906C46.6875 2.97656 46.9401 2.94531 47.2109 2.94531C47.4401 2.94531 47.6615 2.96875 47.875 3.01562C48.0938 3.05729 48.2839 3.11458 48.4453 3.1875C48.4609 3.36458 48.4688 3.56771 48.4688 3.79688C48.4688 4.17188 48.4505 4.59635 48.4141 5.07031L49.7891 4.82031C49.9818 5.15365 50.0781 5.51562 50.0781 5.90625C50.0781 6.17708 50.0443 6.42188 49.9766 6.64062C49.9141 6.85938 49.8255 7.10677 49.7109 7.38281C49.3672 7.4401 48.8958 7.47656 48.2969 7.49219C48.224 8.34115 48.0625 9.58854 47.8125 11.2344L47.7734 11.5L47.7891 11.5156L49.625 10.9453C50.0052 11.263 50.237 11.7526 50.3203 12.4141C50.3203 12.4505 50.151 12.6224 49.8125 12.9297C49.4792 13.2318 49.0599 13.513 48.5547 13.7734C48.0495 14.0286 47.5 14.1562 46.9062 14.1562C45.8698 14.1562 45.3177 13.5234 45.25 12.2578C45.2135 11.6172 45.1953 10.7604 45.1953 9.6875ZM50.8516 9.46094C50.8516 8.5599 51.0026 7.75521 51.3047 7.04688C51.6068 6.33854 52.0729 5.77865 52.7031 5.36719C53.3385 4.95052 54.1302 4.74219 55.0781 4.74219C55.5729 4.74219 56.0677 4.80208 56.5625 4.92188C57.0573 5.03646 57.4766 5.22917 57.8203 5.5C58.138 5.75521 58.3672 6.09375 58.5078 6.51562C58.6536 6.93229 58.7266 7.39583 58.7266 7.90625C58.7266 8.24479 58.6979 8.59115 58.6406 8.94531C58.5781 9.04948 58.4557 9.1875 58.2734 9.35938C58.0911 9.52604 57.8776 9.6901 57.6328 9.85156C57.388 10.013 57.151 10.138 56.9219 10.2266C56.7031 10.2422 56.4766 10.25 56.2422 10.25C55.8307 10.25 55.4141 10.2318 54.9922 10.1953C54.5703 10.1589 54.2005 10.1172 53.8828 10.0703C53.9245 10.513 54.0599 10.8984 54.2891 11.2266C54.5182 11.5547 54.8828 11.7188 55.3828 11.7188C55.4297 11.7188 55.5052 11.7135 55.6094 11.7031C55.9271 11.6719 56.2969 11.5885 56.7188 11.4531C57.1458 11.3125 57.5703 11.151 57.9922 10.9688C58.1901 11.1667 58.3359 11.3646 58.4297 11.5625C58.5234 11.7604 58.5885 12.0443 58.625 12.4141C58.4635 12.6016 58.2005 12.8307 57.8359 13.1016C57.4766 13.3724 57.0365 13.6172 56.5156 13.8359C55.9948 14.0495 55.4505 14.1562 54.8828 14.1562C54.0286 14.1562 53.2969 13.9505 52.6875 13.5391C52.0833 13.1224 51.625 12.5599 51.3125 11.8516C51.0052 11.138 50.8516 10.3411 50.8516 9.46094ZM55.8828 7.66406C55.8099 7.58594 55.6875 7.52604 55.5156 7.48438C55.3438 7.4375 55.1641 7.41406 54.9766 7.41406C54.8255 7.41406 54.6719 7.42708 54.5156 7.45312C54.3646 7.47917 54.2734 7.50781 54.2422 7.53906C54.0651 7.88802 53.9531 8.28385 53.9062 8.72656L55.9922 8.52344L55.8828 7.66406ZM63.2422 11.4922C63.5599 11.5964 63.849 11.6797 64.1094 11.7422C64.6146 9.71094 65.1901 7.3125 65.8359 4.54688L63.9531 4.34375C63.8333 4.01562 63.7734 3.64323 63.7734 3.22656C63.7734 2.90885 63.8099 2.59896 63.8828 2.29688C64.638 2.15104 65.5078 2.04688 66.4922 1.98438C67.4818 1.91667 68.3307 1.88281 69.0391 1.88281C69.5495 1.88281 69.9323 1.88542 70.1875 1.89062L70.6797 2.17188C71.5547 4.57292 72.4427 7.82031 73.3438 11.9141C73.3542 11.9557 73.3724 12.0391 73.3984 12.1641C73.4297 12.2891 73.4531 12.4089 73.4688 12.5234C73.4844 12.6328 73.4922 12.737 73.4922 12.8359C73.4922 13.2734 73.3359 13.6276 73.0234 13.8984C72.5859 14.0703 72.0573 14.1562 71.4375 14.1562C71.1458 14.1562 70.8516 14.125 70.5547 14.0625C70.2578 14 70.0573 13.9036 69.9531 13.7734L70.0469 11.7578L69.8516 10.7109C69.513 10.7318 69.1146 10.7422 68.6562 10.7422C68.1667 10.7422 67.7083 10.7266 67.2812 10.6953L67.1875 11.1172C66.9844 12.0234 66.8177 12.6667 66.6875 13.0469C66.5625 13.4271 66.375 13.7083 66.125 13.8906C65.8802 14.0729 65.513 14.1641 65.0234 14.1641C64.7057 14.1641 64.3854 14.1224 64.0625 14.0391C63.7396 13.9609 63.4479 13.8542 63.1875 13.7188C62.9271 13.5833 62.7318 13.4375 62.6016 13.2812C62.6016 12.9062 62.6589 12.5495 62.7734 12.2109C62.888 11.8724 63.0443 11.6328 63.2422 11.4922ZM68.7188 4.61719H68.3594L67.7969 8.46875H69.5469L68.7188 4.61719ZM74.0703 3.78125C73.9922 3.46354 73.9401 3.20052 73.9141 2.99219C73.888 2.77865 73.8776 2.53385 73.8828 2.25781C73.9922 2.11719 74.1615 1.97656 74.3906 1.83594C74.625 1.6901 74.8958 1.56771 75.2031 1.46875C75.5156 1.36979 75.8385 1.32031 76.1719 1.32031C76.8229 1.32031 77.3229 1.48438 77.6719 1.8125C78.0208 2.14062 78.1953 2.625 78.1953 3.26562C78.1953 3.72396 78.1562 4.46094 78.0781 5.47656C78 6.49219 77.888 7.57292 77.7422 8.71875C77.5964 9.85938 77.4297 10.8568 77.2422 11.7109L77.2578 11.7266L78.4141 11.2422C78.8203 11.5911 79.0573 12.0547 79.125 12.6328C79.125 12.6693 79.0078 12.8203 78.7734 13.0859C78.5391 13.3464 78.2292 13.5911 77.8438 13.8203C77.4635 14.0443 77.026 14.1562 76.5312 14.1562C76.0156 14.1562 75.5964 14.013 75.2734 13.7266C74.9557 13.4401 74.8047 12.9505 74.8203 12.2578L74.8359 10.8516C74.8411 9.51823 74.8542 8.31771 74.875 7.25C74.901 6.18229 74.9531 5.08073 75.0312 3.94531L74.0703 3.78125ZM79.7578 9.46094C79.7578 8.5599 79.9089 7.75521 80.2109 7.04688C80.513 6.33854 80.9792 5.77865 81.6094 5.36719C82.2448 4.95052 83.0365 4.74219 83.9844 4.74219C84.4792 4.74219 84.974 4.80208 85.4688 4.92188C85.9635 5.03646 86.3828 5.22917 86.7266 5.5C87.0443 5.75521 87.2734 6.09375 87.4141 6.51562C87.5599 6.93229 87.6328 7.39583 87.6328 7.90625C87.6328 8.24479 87.6042 8.59115 87.5469 8.94531C87.4844 9.04948 87.362 9.1875 87.1797 9.35938C86.9974 9.52604 86.7839 9.6901 86.5391 9.85156C86.2943 10.013 86.0573 10.138 85.8281 10.2266C85.6094 10.2422 85.3828 10.25 85.1484 10.25C84.737 10.25 84.3203 10.2318 83.8984 10.1953C83.4766 10.1589 83.1068 10.1172 82.7891 10.0703C82.8307 10.513 82.9661 10.8984 83.1953 11.2266C83.4245 11.5547 83.7891 11.7188 84.2891 11.7188C84.3359 11.7188 84.4115 11.7135 84.5156 11.7031C84.8333 11.6719 85.2031 11.5885 85.625 11.4531C86.0521 11.3125 86.4766 11.151 86.8984 10.9688C87.0964 11.1667 87.2422 11.3646 87.3359 11.5625C87.4297 11.7604 87.4948 12.0443 87.5312 12.4141C87.3698 12.6016 87.1068 12.8307 86.7422 13.1016C86.3828 13.3724 85.9427 13.6172 85.4219 13.8359C84.901 14.0495 84.3568 14.1562 83.7891 14.1562C82.9349 14.1562 82.2031 13.9505 81.5938 13.5391C80.9896 13.1224 80.5312 12.5599 80.2188 11.8516C79.9115 11.138 79.7578 10.3411 79.7578 9.46094ZM84.7891 7.66406C84.7161 7.58594 84.5938 7.52604 84.4219 7.48438C84.25 7.4375 84.0703 7.41406 83.8828 7.41406C83.7318 7.41406 83.5781 7.42708 83.4219 7.45312C83.2708 7.47917 83.1797 7.50781 83.1484 7.53906C82.9714 7.88802 82.8594 8.28385 82.8125 8.72656L84.8984 8.52344L84.7891 7.66406ZM89.4609 11.9062C89.4609 11.6823 89.4661 11.1328 89.4766 10.2578C89.4922 8.53906 89.5 7.59896 89.5 7.4375L88.7812 7.32031C88.6823 7.02344 88.612 6.74479 88.5703 6.48438C88.5286 6.22396 88.5078 5.96094 88.5078 5.69531C88.5078 5.58594 88.5104 5.5026 88.5156 5.44531C88.6042 5.36719 88.7422 5.27344 88.9297 5.16406C89.1172 5.05469 89.3385 4.95833 89.5938 4.875C89.849 4.78646 90.1094 4.74219 90.375 4.74219C90.9948 4.74219 91.4427 4.88021 91.7188 5.15625C92 5.43229 92.1406 5.83594 92.1406 6.36719C92.1406 6.6901 92.099 7.10417 92.0156 7.60938C91.9375 8.10938 91.8568 8.46615 91.7734 8.67969L92.0547 8.72656L92.5234 6.96094C92.7318 6.16406 92.9922 5.59635 93.3047 5.25781C93.6172 4.91406 93.9688 4.74219 94.3594 4.74219C94.6146 4.74219 94.8672 4.78125 95.1172 4.85938C95.3724 4.9375 95.5677 5.03385 95.7031 5.14844C95.849 5.47135 95.9219 5.90104 95.9219 6.4375C95.9219 6.8125 95.8854 7.1849 95.8125 7.55469C95.7396 7.91927 95.6458 8.21354 95.5312 8.4375L93.8906 8.21875C93.5573 8.57292 93.2031 9.0651 92.8281 9.69531C92.4531 10.3203 92.1536 10.8958 91.9297 11.4219L91.9219 11.8281L93.4375 11.4688C93.6927 11.8594 93.8411 12.3229 93.8828 12.8594C93.8828 12.8906 93.7656 13.0182 93.5312 13.2422C93.2969 13.4661 92.987 13.6745 92.6016 13.8672C92.2214 14.0547 91.7839 14.1484 91.2891 14.1484C90.7786 14.1484 90.3516 14.013 90.0078 13.7422C89.6693 13.4661 89.4896 13.0026 89.4688 12.3516C89.4635 12.2734 89.4609 12.125 89.4609 11.9062ZM97.1328 9.6875C97.1328 8.83854 97.1458 8.0651 97.1719 7.36719L96.3203 7.21875C96.2526 6.95833 96.2057 6.72917 96.1797 6.53125C96.1536 6.33333 96.1406 6.1224 96.1406 5.89844L96.1562 5.74219C96.1719 5.66927 96.1797 5.60938 96.1797 5.5625L97.3125 5.3125C97.3385 4.98958 97.3984 4.625 97.4922 4.21875C97.5859 3.8125 97.6849 3.51302 97.7891 3.32031C97.9557 3.19531 98.1562 3.10156 98.3906 3.03906C98.625 2.97656 98.8776 2.94531 99.1484 2.94531C99.3776 2.94531 99.599 2.96875 99.8125 3.01562C100.031 3.05729 100.221 3.11458 100.383 3.1875C100.398 3.36458 100.406 3.56771 100.406 3.79688C100.406 4.17188 100.388 4.59635 100.352 5.07031L101.727 4.82031C101.919 5.15365 102.016 5.51562 102.016 5.90625C102.016 6.17708 101.982 6.42188 101.914 6.64062C101.852 6.85938 101.763 7.10677 101.648 7.38281C101.305 7.4401 100.833 7.47656 100.234 7.49219C100.161 8.34115 100 9.58854 99.75 11.2344L99.7109 11.5L99.7266 11.5156L101.562 10.9453C101.943 11.263 102.174 11.7526 102.258 12.4141C102.258 12.4505 102.089 12.6224 101.75 12.9297C101.417 13.2318 100.997 13.513 100.492 13.7734C99.987 14.0286 99.4375 14.1562 98.8438 14.1562C97.8073 14.1562 97.2552 13.5234 97.1875 12.2578C97.151 11.6172 97.1328 10.7604 97.1328 9.6875ZM102.789 9.46094C102.789 8.5599 102.94 7.75521 103.242 7.04688C103.544 6.33854 104.01 5.77865 104.641 5.36719C105.276 4.95052 106.068 4.74219 107.016 4.74219C107.51 4.74219 108.005 4.80208 108.5 4.92188C108.995 5.03646 109.414 5.22917 109.758 5.5C110.076 5.75521 110.305 6.09375 110.445 6.51562C110.591 6.93229 110.664 7.39583 110.664 7.90625C110.664 8.24479 110.635 8.59115 110.578 8.94531C110.516 9.04948 110.393 9.1875 110.211 9.35938C110.029 9.52604 109.815 9.6901 109.57 9.85156C109.326 10.013 109.089 10.138 108.859 10.2266C108.641 10.2422 108.414 10.25 108.18 10.25C107.768 10.25 107.352 10.2318 106.93 10.1953C106.508 10.1589 106.138 10.1172 105.82 10.0703C105.862 10.513 105.997 10.8984 106.227 11.2266C106.456 11.5547 106.82 11.7188 107.32 11.7188C107.367 11.7188 107.443 11.7135 107.547 11.7031C107.865 11.6719 108.234 11.5885 108.656 11.4531C109.083 11.3125 109.508 11.151 109.93 10.9688C110.128 11.1667 110.273 11.3646 110.367 11.5625C110.461 11.7604 110.526 12.0443 110.562 12.4141C110.401 12.6016 110.138 12.8307 109.773 13.1016C109.414 13.3724 108.974 13.6172 108.453 13.8359C107.932 14.0495 107.388 14.1562 106.82 14.1562C105.966 14.1562 105.234 13.9505 104.625 13.5391C104.021 13.1224 103.562 12.5599 103.25 11.8516C102.943 11.138 102.789 10.3411 102.789 9.46094ZM107.82 7.66406C107.747 7.58594 107.625 7.52604 107.453 7.48438C107.281 7.4375 107.102 7.41406 106.914 7.41406C106.763 7.41406 106.609 7.42708 106.453 7.45312C106.302 7.47917 106.211 7.50781 106.18 7.53906C106.003 7.88802 105.891 8.28385 105.844 8.72656L107.93 8.52344L107.82 7.66406Z" fill="white"/>
</svg>
